<svg id="shadow" xmlns="http://www.w3.org/2000/svg" viewBox="0 0 456.49 354.09"><defs><style>.cls-1{fill:#035293;}.cls-14,.cls-2{fill:#edefef;}.cls-3{fill:#8be8ea;}.cls-4{fill:#398080;}.cls-5{fill:#46999f;}.cls-6{fill:#ffd9c8;}.cls-7{fill:#937f76;}.cls-8{fill:#75b2cc;}.cls-9{fill:#07302e;}.cls-10{fill:#212121;}.cls-11{fill:#92979b;}.cls-12{fill:#fff;}.cls-13{fill:#544740;}.cls-14,.cls-15{opacity:0.9;}.cls-16{fill:#c5d0d8;}.cls-17{fill:#ff1d1d;}.cls-18{fill:#4f4741;}.cls-19{fill:#161616;}</style></defs><title> </title><ellipse class="cls-1" cx="228.25" cy="312.05" rx="228.25" ry="42.05"/><g id="cusion"><g id="leg"><polygon class="cls-2" points="147.7 278.25 152.21 321.04 156.34 321.04 160.73 274.5 147.7 278.25"/><polygon class="cls-2" points="317.02 278.25 312.05 321.04 307.48 321.04 302.64 274.5 317.02 278.25"/></g><polygon class="cls-3" points="174.9 230.03 233.9 230.03 232.84 241.03 174.9 241.03 174.9 230.03"/><polygon class="cls-3" points="288.89 230.03 230.15 230.03 231.21 241.03 288.89 241.03 288.89 230.03"/><g id="Layer_21" data-name="Layer 21"><path class="cls-4" d="M176,250V217s0.89-28.08,21-29.51,9.76,0,9.76,0l46.28-.64L256,292H179l-2.51-42" transform="translate(-22.11 -61.96)"/><path class="cls-4" d="M332,250V217s-0.76-28.08-20.87-29.51-9.7,0-9.7,0l-46.25-.64L252.25,292h77l2.38-42" transform="translate(-22.11 -61.96)"/></g></g><path class="cls-5" d="M162,340l-0.75-74.4c0.05-2.17.49-8.27,5-12.08,2.71-2.29,5.76-2.79,10.23-3.52a44.86,44.86,0,0,1,12.16-.31c2.42,0.12,6.67.72,9.72,3.83,3.49,3.56,3.6,8.55,3.62,11.79,0.08,10.23.13,22.45-.09,36.53l53,0.59L255.75,340H162Z" transform="translate(-22.11 -61.96)"/><path class="cls-5" d="M346.25,340c0.25-25,.5-49.6.75-74.4-0.05-2.17-.49-8.27-5-12.08-2.71-2.29-5.76-2.79-10.23-3.52a44.86,44.86,0,0,0-12.16-.31c-2.42.12-6.67,0.72-9.72,3.83-3.49,3.56-3.6,8.55-3.62,11.79-0.08,10.23-.13,22.45.09,36.53l-53,.59C253,315,252.77,327,252.5,340h93.75Z" transform="translate(-22.11 -61.96)"/><path class="cls-6" d="M268.94,139.25v6a10.18,10.18,0,0,1-1.5,4.94c-0.88,1.4-1.78,1.94-4.82,4.75-1.17,1.08-2.1,2-2.68,2.54L257.89,160h0l-2.06-2.53c-0.58-.57-1.51-1.46-2.68-2.54-3-2.8-3.93-3.35-4.82-4.75a10.18,10.18,0,0,1-1.5-4.94v-6" transform="translate(-22.11 -61.96)"/><g id="ears"><path class="cls-6" d="M234.94,121.55a3.79,3.79,0,0,1-2.68-.56c-1.17-.86-1.2-2.32-1.81-5.51-0.22-1.13-.57-2.79-1.11-4.8-0.29-.77-1-3,0-4.8,0.17-.3.85-1.49,1.65-1.43a1,1,0,0,1,.6.29,18.48,18.48,0,0,1,2.78,4.48Z" transform="translate(-22.11 -61.96)"/><path class="cls-7" d="M232.26,117a16.63,16.63,0,0,0-.52-3.36c-0.09-.6,0-0.15-0.06-3,0-1-.06-1.71.4-2.13a1,1,0,0,0,.37-0.49,0.67,0.67,0,0,0-.32-0.78c-0.07,0-.19,0-0.45.53a4.85,4.85,0,0,0-.52,1.54,21.48,21.48,0,0,0,.07,4.66c0.08,0.61.58,4.2,0.87,4.18A2.77,2.77,0,0,0,232.26,117Z" transform="translate(-22.11 -61.96)"/><path class="cls-6" d="M280.81,121.55a3.79,3.79,0,0,0,2.68-.56c1.17-.86,1.2-2.32,1.81-5.51,0.22-1.13.57-2.79,1.11-4.8,0.29-.77,1-3,0-4.8-0.17-.3-0.85-1.49-1.65-1.43a1,1,0,0,0-.6.29,18.48,18.48,0,0,0-2.78,4.48Z" transform="translate(-22.11 -61.96)"/><path class="cls-7" d="M283.48,117a16.63,16.63,0,0,1,.52-3.36c0.09-.6,0-0.15.06-3,0-1,.06-1.71-0.4-2.13a1,1,0,0,1-.37-0.49,0.67,0.67,0,0,1,.32-0.78c0.07,0,.19,0,0.45.53a4.85,4.85,0,0,1,.52,1.54,21.48,21.48,0,0,1-.07,4.66c-0.08.61-.58,4.2-0.87,4.18A2.77,2.77,0,0,1,283.48,117Z" transform="translate(-22.11 -61.96)"/></g><path class="cls-8" d="M288.76,258.74s-2.48,3.35-6-3.44a38.57,38.57,0,0,1-4.08-11.71l18-10.63-1.42-24a117.53,117.53,0,0,1,1.54-12.34,111.52,111.52,0,0,0,7.84-31l0.54-3.24s4.51-6.61-4.51-6.61-24.31-9.06-24.31-9.06a18.33,18.33,0,0,1-34.75.31c-15.08,8.49-21.57,9.34-24.55,10-2.74.57-6.33-.09-6.35,3.06l7.71,32.06c0.57,1.35,2.83,7.59,1.21,17.71-0.61,3.84-1.17,11.9-1.63,20.93l22.6,9.92A38.57,38.57,0,0,1,238,252.77c-2.65,7.16-5.52,4.13-5.52,4.13-4.09-4.09-14.15-7.71-14.15-7.71l-1.07-.34c-0.45,11.91-.71,21.75-0.71,21.75l18.4,4.51H299.2l-1.39-23.45C294.77,253.48,290.79,256.15,288.76,258.74Z" transform="translate(-22.11 -61.96)"/><path class="cls-9" d="M218,230.73l-11.27-5,11.7-33.69-0.12-.28s-4.63-22.46-7-28.88a8.62,8.62,0,0,1-.63-2.9h0s-4.6.68-5.37,7.45-8.31,28.79-8.31,28.79L188.37,227s-2.9,7.92,3.48,12c5.49,3.5,21.16,8.57,25.39,9.9l1.07,0.34s10.06,3.62,14.15,7.71c0,0,2.87,3,5.52-4.13a38.57,38.57,0,0,0,2.65-12.12Z" transform="translate(-22.11 -61.96)"/><path class="cls-9" d="M329,223.77l-12.3-29.46s-10.11-21-11.68-27.59c-0.09-.39-0.2-0.75-0.31-1.09-1,5.77-3.23,17.69-5.47,22.61a38.91,38.91,0,0,0-2.36,8.4l13.73,28.14L296.71,233l-18,10.63a38.57,38.57,0,0,0,4.08,11.71c3.49,6.79,6,3.44,6,3.44,2-2.59,6-5.26,9.06-7.08,2.3-1.37,4.07-2.26,4.07-2.26s19.21-8.54,25.06-13.32S329,223.77,329,223.77Z" transform="translate(-22.11 -61.96)"/><g id="collars"><path class="cls-10" d="M246.89,144.3s-3.2-1.43-7,2.41c0,0,4.12,17.87,8.36,22.92q0.32,0.53.63,1.09,0.51,0.92.95,1.8c4.06-9,6.53-12,8.1-12.48a0.7,0.7,0,0,0,.34-0.21C260,157.75,246.89,144.3,246.89,144.3Z" transform="translate(-22.11 -61.96)"/><path class="cls-10" d="M269.35,144.3s3.2-1.43,7,2.41c0,0-4.12,17.87-8.36,22.92q-0.3.54-.63,1.09-0.52.86-1,1.65c-4-8.86-6.44-11.81-8-12.33a0.7,0.7,0,0,1-.34-0.21C256.26,157.75,269.35,144.3,269.35,144.3Z" transform="translate(-22.11 -61.96)"/></g><path id="head-2" data-name="head" class="cls-6" d="M236.45,127.68A23.82,23.82,0,0,0,244.76,139c1.58,1.16,7.11,4.92,14.18,4.54,8.65-.47,16.58-7,20.22-16.47a57.15,57.15,0,0,0,2.79-9.95c0.38-2.06,5.47-31.74-11.34-43.58a22.41,22.41,0,0,0-12.19-4.25c-8.72-.27-14.87,5.07-16.5,6.57a46,46,0,0,0-7.56,13C227.77,106.54,234.32,122.9,236.45,127.68Z" transform="translate(-22.11 -61.96)"/><g id="beard"><path class="cls-11" d="M245.14,126.82a19.87,19.87,0,0,1,12.09-4.42c1.29,0,9.53-.08,12.58,4.76,0.83,1.32.88,2.37,1.87,2.72,2.27,0.81,5.84-3.26,7.47-5.77,3.14-4.82,3.32-10.28,2.91-14.14a32.48,32.48,0,0,1,.49,8.62c-0.21,2.69-1.1,12.37-8.83,19.8a22.34,22.34,0,0,1-11.16,6.48c-10.45,2.17-18.84-5.26-20-6.31a28.28,28.28,0,0,1-5.45-6.47,30.18,30.18,0,0,1-4.08-18.21s3.66,10.13,5.28,11.74S241.56,130.39,245.14,126.82Z" transform="translate(-22.11 -61.96)"/></g><path class="cls-12" d="M254.5,131.32a18.45,18.45,0,0,0,5.85.09c1.66-.24,5.2-1,5.19-1.89s-4.09-1.79-7.35-1.89c-3.47-.1-7.76.57-7.82,1.6C250.32,129.69,251.07,130.36,254.5,131.32Z" transform="translate(-22.11 -61.96)"/><g id="eyes"><ellipse class="cls-13" cx="225.52" cy="47.26" rx="3.5" ry="4.48"/><circle class="cls-14" cx="226.7" cy="45.65" r="1.18"/><ellipse class="cls-13" cx="247.27" cy="47.26" rx="3.5" ry="4.48"/><circle class="cls-14" cx="246.09" cy="45.65" r="1.18"/></g><g id="glasses" class="cls-15"><path d="M279,103.5h0a1.5,1.5,0,0,0-1.5-1.5h-16a1.5,1.5,0,0,0-1.5,1.5v1a1.5,1.5,0,0,1-1.5,1.5h-2a1.5,1.5,0,0,1-1.5-1.5v-1a1.5,1.5,0,0,0-1.5-1.5h-16a1.5,1.5,0,0,0-1.5,1.5h0a1.5,1.5,0,0,1-1.5,1.5H232v1h2.5a1.5,1.5,0,0,1,1.5,1.5v8a1.5,1.5,0,0,0,1.5,1.5h16a1.5,1.5,0,0,0,1.5-1.5v-6a1.5,1.5,0,0,1,1.5-1.5h2a1.5,1.5,0,0,1,1.5,1.5v6a1.5,1.5,0,0,0,1.5,1.5h16a1.5,1.5,0,0,0,1.5-1.5v-8a1.5,1.5,0,0,1,1.5-1.5H283v-1h-2.5A1.5,1.5,0,0,1,279,103.5ZM251.5,115h-12a1.5,1.5,0,0,1-1.5-1.5v-8a1.5,1.5,0,0,1,1.5-1.5h12a1.5,1.5,0,0,1,1.5,1.5v8A1.5,1.5,0,0,1,251.5,115Zm24,0h-12a1.5,1.5,0,0,1-1.5-1.5v-8a1.5,1.5,0,0,1,1.5-1.5h12a1.5,1.5,0,0,1,1.5,1.5v8A1.5,1.5,0,0,1,275.5,115Z" transform="translate(-22.11 -61.96)"/></g><g id="hair"><path class="cls-16" d="M237,99.95s3.66-6.17,3.66-10.56S244,81.92,246.93,83a35.81,35.81,0,0,0,5.92,1.73,20.62,20.62,0,0,0,5.82.64c2.88-.14,3.05-0.92,6.64-1.54,2.94-.51,6.23-1.08,8.19.71,0.64,0.59.94,1.46,1.54,3.2,1.37,4,.77,5.28,1.9,8.19,1,2.45,1.42,1.63,2.85,4.75a39.14,39.14,0,0,1,2.33,7.24h0l2.05-4.63s2.73-1.42,2.14-12.1-0.59-14-.59-14-0.83-7.24-10.68-9a12.91,12.91,0,0,1-4.39-2.61c-2.61-2.61-6.53-3.33-10.8-3.56a21.53,21.53,0,0,0-10.8,2.37c-1,.55-3,1.81-6.29,3.44-0.94.46-1.73,0.83-2.25,1.07a11.24,11.24,0,0,0-6.17,3.32c-0.92,1-1.81,2.48-2.85,9.13-1.09,6.95-1.42,13.76-1.42,13.76h0s1.12,11.21,2.72,12.81c0,0,.32-4.86,2.25-6.41Z" transform="translate(-22.11 -61.96)"/></g><rect class="cls-5" x="222.78" y="182.04" width="29.5" height="12.1"/><rect class="cls-17" x="232.16" y="179.03" width="11.46" height="3"/><path class="cls-6" d="M238.83,242.57s5,2.43,8.06,2.43H255s5.66,2.12-1.08,3.43a58.6,58.6,0,0,1-8.61,1.31s-3.37,3,5.8,3,10.11-.94,10.11-0.94,7.56,2.69-11.2,5.74c-1.78.29-12,1.07-16.39-3.66a5.25,5.25,0,0,1-1.49-2.8c-0.45-2.87,2.09-5.23,2.53-5.63Z" transform="translate(-22.11 -61.96)"/><path class="cls-6" d="M280.17,245.57s-5,2.43-8.06,2.43H264s-5.66,2.12,1.08,3.43a58.6,58.6,0,0,0,8.61,1.31s3.37,3-5.8,3-10.11-.94-10.11-0.94-7.56,2.69,11.2,5.74c0,0,10.31,1,16.39-3.66a6.53,6.53,0,0,0,1.82-2.15,5.63,5.63,0,0,0,.51-2.68,7.2,7.2,0,0,0-2.82-5.23A7,7,0,0,0,280.17,245.57Z" transform="translate(-22.11 -61.96)"/><rect class="cls-10" x="191.39" y="213.71" width="88.95" height="18.58" rx="9.29" ry="9.29"/><path class="cls-18" d="M215.5,276.68a15.59,15.59,0,0,1,25.33-14.58c4,3.46,4.59,8.81,4.81,10.81,4,36.17-.72,73.84,9.51,108.77,0.25,0.84,1.37,4.29-.26,6-1.23,1.32-3.49,1.06-4.46,1-11.17-1.18-27.4.69-27.4,0.69h0a3.17,3.17,0,0,1-2-.28c-3.29-1.81-1.63-10.61-1.36-12.25C220.93,369,220.21,341.41,215.5,276.68Z" transform="translate(-22.11 -61.96)"/><path class="cls-18" d="M299.61,276.68a15.59,15.59,0,0,0-25.33-14.58c-4,3.46-4.59,8.81-4.81,10.81-4,36.17.72,73.84-9.51,108.77-0.25.84-1.37,4.29,0.26,6,1.23,1.32,3.49,1.06,4.46,1,11.17-1.18,27.4.69,27.4,0.69h0a3.17,3.17,0,0,0,2-.28c3.29-1.81,1.63-10.61,1.36-12.25C294.18,369,294.89,341.41,299.61,276.68Z" transform="translate(-22.11 -61.96)"/><g id="feet"><path class="cls-19" d="M253,393.34a8.75,8.75,0,0,1-3.28,7.7c-2.34,1.69-4.06.6-11.28,0.58-8.06,0-10.13,1.33-12.43-.58s-2.77-5.32-2.4-7.7c1-6,8.26-10.22,14.69-10.23S252.37,387.41,253,393.34Z" transform="translate(-22.11 -61.96)"/><path class="cls-19" d="M294.28,393.34A8.75,8.75,0,0,1,291,401c-2.34,1.69-4.06.6-11.28,0.58-8.06,0-10.13,1.33-12.43-.58s-2.77-5.32-2.4-7.7c1-6,8.26-10.22,14.69-10.23S293.68,387.41,294.28,393.34Z" transform="translate(-22.11 -61.96)"/></g></svg>