<?xml version="1.0" encoding="utf-8"?>
<!-- Generator: Adobe Illustrator 23.0.1, SVG Export Plug-In . SVG Version: 6.00 Build 0)  -->
<svg version="1.1" id="fb" xmlns="http://www.w3.org/2000/svg" xmlns:xlink="http://www.w3.org/1999/xlink" x="0px" y="0px"
	 viewBox="0 0 83.2 166.1" style="enable-background:new 0 0 83.2 166.1;" xml:space="preserve">
<style type="text/css">
	.st0{fill:#FFFFFF;}
</style>
<title>fb</title>
<path class="st0" d="M54.4,27.1h27.1c0.8,0,1.4-0.6,1.4-1.5V1.5c0-0.8-0.6-1.4-1.4-1.5L46.8,0C43.5,0.2,32,1.3,23.5,10.3
	C14,20.4,14,34.5,14,38.1v18H1.8c-1,0-1.8,0.8-1.8,1.8l0,0v25.9c0,1.3,1,2.3,2.3,2.3H14v78.5c0,0.8,0.7,1.5,1.5,1.5l0,0h28.3
	c0.7,0,1.2-0.6,1.2-1.2V86.1h27.8c1.5-0.1,2.7-1.1,3.1-2.6l6.9-23.1c0.6-2.1,0.8-4.3-3.1-4.3H45v-18l0,0c0-0.1,0-0.1,0-0.2
	C45,37.9,45.2,27.1,54.4,27.1z"/>
</svg>
