<svg id="fb" xmlns="http://www.w3.org/2000/svg" viewBox="0 0 83.24 166.09"><title>fb</title><path d="M115.45,45h27.1A1.45,1.45,0,0,0,144,43.55V19.45A1.45,1.45,0,0,0,142.55,18l-34.73-.09c-3.28.19-14.82,1.25-23.31,10.28C75,38.31,75,52.42,75,56V74H62.8A1.8,1.8,0,0,0,61,75.8v25.87A2.34,2.34,0,0,0,63.33,104H75v78.53A1.47,1.47,0,0,0,76.47,184h28.3a1.23,1.23,0,0,0,1.23-1.23V104h27.8a3.51,3.51,0,0,0,3.15-2.56l6.95-23.09c0.64-2.11.79-4.35-3.15-4.35H106V56h0a0.57,0.57,0,0,0,0-.21S106.18,45,115.45,45Z" transform="translate(-61 -17.91)"/></svg>