<svg id="fb" xmlns="http://www.w3.org/2000/svg" viewBox="0 0 161.81 133.84"><title>twitter</title><path d="M181.12,48.39c-0.25-.24-0.76.11-2.9,1.11a101.31,101.31,0,0,1-9.74,3.69c-2.73,1-4,1.31-4.48.77a1.78,1.78,0,0,1,.21-1.65c7.88-6,11-10.91,12.35-13.73,0.48-1,1.45-3,.8-3.64s-3.53,1-5.55,2.42a40.75,40.75,0,0,1-16.54,6.84c-11.7-12.28-30.25-14.55-43.72-5.9C99.71,45.91,93.8,60.69,97,75.09a85.35,85.35,0,0,1-33.64-7C51,62.79,34.41,52.07,31.87,44.44c-0.24-.73-1.17-3.86-3.09-4.2-1.43-.25-2.84,1.15-3.68,2.13a32.33,32.33,0,0,0-2.86,17.48C23.9,73.49,34,81.11,35.93,82.5c0.71,0.37,1.49.85,1.41,1.15-0.12.46-2.11,0.28-2.44,0.26a13.57,13.57,0,0,1-6.33-2.34c-1.47-1.18-3.41-2.41-4.7-1.77-1.81.9-1.8,6.31-.53,10.94,3.18,11.65,14.47,19.46,15.51,20.16s4,2.59,3.75,3.1-2.46-.15-3.91-0.65c-2.71-.94-3.55-2-4.24-1.63-1.07.54-.73,3.94,0.16,6.68C37.09,126,44.3,130,48,132.1a44.46,44.46,0,0,0,17.51,5.42s1.1,1.1-13.24,9-26.92,4.74-30.34,4.74-2.32,2.32-2.32,2.32a99.73,99.73,0,0,0,33.15,11.94,98.83,98.83,0,0,0,21.83,1.22A90.42,90.42,0,0,0,120,153.34a93.76,93.76,0,0,0,27-26.16,100.77,100.77,0,0,0,11.65-21.42,99.72,99.72,0,0,0,6.55-41.39,30.65,30.65,0,0,0,9.18-5.88C178.48,54.6,181.92,49.15,181.12,48.39Z" transform="translate(-19.42 -33.1)"/></svg>