<?xml version="1.0" encoding="utf-8"?>
<!-- Generator: Adobe Illustrator 23.0.1, SVG Export Plug-In . SVG Version: 6.00 Build 0)  -->
<svg version="1.1" id="fb" xmlns="http://www.w3.org/2000/svg" xmlns:xlink="http://www.w3.org/1999/xlink" x="0px" y="0px"
	 viewBox="0 0 161.8 133.8" style="enable-background:new 0 0 161.8 133.8;" xml:space="preserve">
<style type="text/css">
	.st0{fill:#FFFFFF;}
</style>
<title>twitter</title>
<path class="st0" d="M161.7,15.3c-0.3-0.2-0.8,0.1-2.9,1.1c-3.2,1.4-6.4,2.6-9.7,3.7c-2.7,1-4,1.3-4.5,0.8c-0.2-0.6-0.1-1.2,0.2-1.7
	c7.9-6,11-10.9,12.4-13.7c0.5-1,1.4-3,0.8-3.6s-3.5,1-5.6,2.4c-4.9,3.5-10.6,5.8-16.5,6.8C124.2-1.2,105.6-3.4,92.1,5.2
	C80.3,12.8,74.4,27.6,77.6,42c-11.6,0-23-2.4-33.6-7c-12.4-5.3-29-16-31.5-23.6c-0.2-0.7-1.2-3.9-3.1-4.2C7.9,6.9,6.5,8.3,5.7,9.3
	c-2.6,5.4-3.6,11.5-2.9,17.5C4.5,40.4,14.6,48,16.5,49.4c0.7,0.4,1.5,0.8,1.4,1.2c-0.1,0.5-2.1,0.3-2.4,0.3c-2.3-0.2-4.5-1-6.3-2.3
	c-1.5-1.2-3.4-2.4-4.7-1.8C2.6,47.6,2.7,53,3.9,57.6c3.2,11.7,14.5,19.5,15.5,20.2s4,2.6,3.8,3.1s-2.5-0.2-3.9-0.7
	c-2.7-0.9-3.5-2-4.2-1.6c-1.1,0.5-0.7,3.9,0.2,6.7c2.5,7.6,9.7,11.6,13.4,13.7c5.4,3,11.4,4.8,17.5,5.4c0,0,1.1,1.1-13.2,9
	s-26.9,4.7-30.3,4.7s-2.3,2.3-2.3,2.3c10.3,5.9,21.5,10,33.2,11.9c7.2,1.2,14.5,1.6,21.8,1.2c16.1-0.4,31.7-5,45.4-13.4
	c10.7-6.8,19.9-15.7,27-26.2c4.7-6.6,8.6-13.8,11.6-21.4c5.1-13.2,7.3-27.3,6.6-41.4c3.4-1.4,6.5-3.4,9.2-5.9
	C159.1,21.5,162.5,16.1,161.7,15.3z"/>
</svg>
